{
  "accessors": [
    {
      "bufferView": 2,
      "componentType": 5126,
      "count": 65532,
      "max": [
        2350.60888671875,
        2246.806884765625,
        435.8865661621094
      ],
      "min": [
        1879.9600830078125,
        1308.5078125,
        0.0
      ],
      "type": "VEC3"
    },
    {
      "bufferView": 2,
      "byteOffset": 786384,
      "componentType": 5126,
      "count": 65532,
      "max": [
        0.9998928904533386,
        0.9998306632041931,
        0.9998866319656372
      ],
      "min": [
        -0.9998928904533386,
        -0.9998306632041931,
        -0.9998866319656372
      ],
      "type": "VEC3"
    },
    {
      "bufferView": 1,
      "componentType": 5126,
      "count": 65532,
      "max": [
        0.9952830076217651,
        0.9990569949150085
      ],
      "min": [
        0.7632079720497131,
        0.0009430000209249556
      ],
      "type": "VEC2"
    },
    {
      "bufferView": 0,
      "componentType": 5125,
      "count": 98298,
      "type": "SCALAR"
    },
    {
      "bufferView": 2,
      "byteOffset": 1572768,
      "componentType": 5126,
      "count": 65532,
      "max": [
        2781.680908203125,
        2196.98828125,
        640.5375366210938
      ],
      "min": [
        1906.9000244140625,
        1503.9521484375,
        0.22984938323497772
      ],
      "type": "VEC3"
    },
    {
      "bufferView": 2,
      "byteOffset": 2359152,
      "componentType": 5126,
      "count": 65532,
      "max": [
        0.9998915195465088,
        0.9993542432785034,
        0.9999977350234985
      ],
      "min": [
        -0.9998915195465088,
        -0.9993542432785034,
        -0.9999977350234985
      ],
      "type": "VEC3"
    },
    {
      "bufferView": 1,
      "byteOffset": 524256,
      "componentType": 5126,
      "count": 65532,
      "max": [
        0.765093982219696,
        0.9990569949150085
      ],
      "min": [
        0.5292450189590454,
        0.0009430000209249556
      ],
      "type": "VEC2"
    },
    {
      "bufferView": 0,
      "byteOffset": 393192,
      "componentType": 5125,
      "count": 98298,
      "type": "SCALAR"
    },
    {
      "bufferView": 2,
      "byteOffset": 3145536,
      "componentType": 5126,
      "count": 65532,
      "max": [
        2826.4482421875,
        2209.982666015625,
        673.031982421875
      ],
      "min": [
        2029.727783203125,
        1267.076171875,
        0.21176306903362274
      ],
      "type": "VEC3"
    },
    {
      "bufferView": 2,
      "byteOffset": 3931920,
      "componentType": 5126,
      "count": 65532,
      "max": [
        0.9998603463172913,
        0.9999070167541504,
        0.9993913769721985
      ],
      "min": [
        -0.9998603463172913,
        -0.9999070167541504,
        -0.9993913769721985
      ],
      "type": "VEC3"
    },
    {
      "bufferView": 1,
      "byteOffset": 1048512,
      "componentType": 5126,
      "count": 65532,
      "max": [
        0.5311319828033447,
        0.9990569949150085
      ],
      "min": [
        0.00471699982881546,
        0.0009430000209249556
      ],
      "type": "VEC2"
    },
    {
      "bufferView": 0,
      "byteOffset": 786384,
      "componentType": 5125,
      "count": 98298,
      "type": "SCALAR"
    },
    {
      "bufferView": 2,
      "byteOffset": 4718304,
      "componentType": 5126,
      "count": 65532,
      "max": [
        2841.7548828125,
        2014.0943603515625,
        666.5753784179688
      ],
      "min": [
        1908.859130859375,
        1206.56787109375,
        0.15119951963424683
      ],
      "type": "VEC3"
    },
    {
      "bufferView": 2,
      "byteOffset": 5504688,
      "componentType": 5126,
      "count": 65532,
      "max": [
        0.9999356269836426,
        0.9999403357505798,
        0.9997657537460327
      ],
      "min": [
        -0.9999356269836426,
        -0.9999403357505798,
        -0.9997657537460327
      ],
      "type": "VEC3"
    },
    {
      "bufferView": 1,
      "byteOffset": 1572768,
      "componentType": 5126,
      "count": 65532,
      "max": [
        0.3764150142669678,
        0.9990569949150085
      ],
      "min": [
        0.0009430000209249556,
        0.0009430000209249556
      ],
      "type": "VEC2"
    },
    {
      "bufferView": 0,
      "byteOffset": 1179576,
      "componentType": 5125,
      "count": 98298,
      "type": "SCALAR"
    },
    {
      "bufferView": 2,
      "byteOffset": 6291072,
      "componentType": 5126,
      "count": 17568,
      "max": [
        2848.2021484375,
        2015.763671875,
        651.9675903320313
      ],
      "min": [
        2238.169677734375,
        1422.66552734375,
        0.2726156413555145
      ],
      "type": "VEC3"
    },
    {
      "bufferView": 2,
      "byteOffset": 6501888,
      "componentType": 5126,
      "count": 17568,
      "max": [
        0.9986863732337952,
        0.9998062252998352,
        0.999118447303772
      ],
      "min": [
        -0.9986863732337952,
        -0.9998062252998352,
        -0.999118447303772
      ],
      "type": "VEC3"
    },
    {
      "bufferView": 1,
      "byteOffset": 2097024,
      "componentType": 5126,
      "count": 17568,
      "max": [
        0.4367919862270355,
        0.9990569949150085
      ],
      "min": [
        0.3745279908180237,
        0.0009430000209249556
      ],
      "type": "VEC2"
    },
    {
      "bufferView": 0,
      "byteOffset": 1572768,
      "componentType": 5125,
      "count": 26352,
      "type": "SCALAR"
    }
  ],
  "asset": {
    "extras": {
      "author": "TourFromHome (https://sketchfab.com/TourFromHome)",
      "license": "CC-BY-4.0 (http://creativecommons.org/licenses/by/4.0/)",
      "source": "https://sketchfab.com/3d-models/scene09-90e5bbd2104f42c29ad9d8286ca64a25",
      "title": "Scene09"
    },
    "generator": "Sketchfab-10.85.0",
    "version": "2.0"
  },
  "bufferViews": [
    {
      "buffer": 0,
      "byteLength": 1678176,
      "name": "floatBufferViews",
      "target": 34963
    },
    {
      "buffer": 0,
      "byteLength": 2237568,
      "byteOffset": 1678176,
      "byteStride": 8,
      "name": "floatBufferViews",
      "target": 34962
    },
    {
      "buffer": 0,
      "byteLength": 6712704,
      "byteOffset": 3915744,
      "byteStride": 12,
      "name": "floatBufferViews",
      "target": 34962
    }
  ],
  "buffers": [
    {
      "byteLength": 10628448,
      "uri": "scene.bin"
    }
  ],
  "images": [
    {
      "uri": "textures/Material-Curl01_baseColor.png"
    }
  ],
  "materials": [
    {
      "doubleSided": true,
      "name": "Material-Curl01",
      "pbrMetallicRoughness": {
        "baseColorTexture": {
          "index": 0
        },
        "metallicFactor": 0.0,
        "roughnessFactor": 0.6
      }
    }
  ],
  "meshes": [
    {
      "name": "material-a9a9e97a-2eb7-4746-8ef9-67e8b6b202f5",
      "primitives": [
        {
          "attributes": {
            "NORMAL": 1,
            "POSITION": 0,
            "TEXCOORD_0": 2
          },
          "indices": 3,
          "material": 0,
          "mode": 4
        }
      ]
    },
    {
      "name": "material-a9a9e97a-2eb7-4746-8ef9-67e8b6b202f5",
      "primitives": [
        {
          "attributes": {
            "NORMAL": 5,
            "POSITION": 4,
            "TEXCOORD_0": 6
          },
          "indices": 7,
          "material": 0,
          "mode": 4
        }
      ]
    },
    {
      "name": "material-a9a9e97a-2eb7-4746-8ef9-67e8b6b202f5",
      "primitives": [
        {
          "attributes": {
            "NORMAL": 9,
            "POSITION": 8,
            "TEXCOORD_0": 10
          },
          "indices": 11,
          "material": 0,
          "mode": 4
        }
      ]
    },
    {
      "name": "material-a9a9e97a-2eb7-4746-8ef9-67e8b6b202f5",
      "primitives": [
        {
          "attributes": {
            "NORMAL": 13,
            "POSITION": 12,
            "TEXCOORD_0": 14
          },
          "indices": 15,
          "material": 0,
          "mode": 4
        }
      ]
    },
    {
      "name": "material-a9a9e97a-2eb7-4746-8ef9-67e8b6b202f5",
      "primitives": [
        {
          "attributes": {
            "NORMAL": 17,
            "POSITION": 16,
            "TEXCOORD_0": 18
          },
          "indices": 19,
          "material": 0,
          "mode": 4
        }
      ]
    }
  ],
  "nodes": [
    {
      "children": [
        1
      ],
      "matrix": [
        1.0,
        0.0,
        0.0,
        0.0,
        0.0,
        2.220446049250313e-16,
        -1.0,
        0.0,
        0.0,
        1.0,
        2.220446049250313e-16,
        0.0,
        0.0,
        0.0,
        0.0,
        1.0
      ],
      "name": "Sketchfab_model"
    },
    {
      "children": [
        2,
        8,
        10,
        12,
        14
      ],
      "name": "Collada visual scene group"
    },
    {
      "children": [
        3,
        4,
        5,
        6,
        7
      ],
      "name": "Mesh"
    },
    {
      "mesh": 0,
      "name": "material-a9a9e97a-2eb7-4746-8ef9-67e8b6b202f5"
    },
    {
      "mesh": 1,
      "name": "material-a9a9e97a-2eb7-4746-8ef9-67e8b6b202f5"
    },
    {
      "mesh": 2,
      "name": "material-a9a9e97a-2eb7-4746-8ef9-67e8b6b202f5"
    },
    {
      "mesh": 3,
      "name": "material-a9a9e97a-2eb7-4746-8ef9-67e8b6b202f5"
    },
    {
      "mesh": 4,
      "name": "material-a9a9e97a-2eb7-4746-8ef9-67e8b6b202f5"
    },
    {
      "children": [
        9
      ],
      "matrix": [
        0.0,
        1.0,
        0.0,
        0.0,
        0.0,
        0.0,
        1.0,
        0.0,
        1.0,
        0.0,
        0.0,
        0.0,
        21365.345799,
        4589.435684,
        568.015773,
        1.0
      ],
      "name": "View-Right"
    },
    {
      "name": "Camera-Right"
    },
    {
      "children": [
        11
      ],
      "matrix": [
        1.0,
        0.0,
        0.0,
        0.0,
        0.0,
        0.0,
        1.0,
        0.0,
        0.0,
        -1.0,
        0.0,
        0.0,
        8707.834744,
        -17476.145847,
        609.906095,
        1.0
      ],
      "name": "View-Front"
    },
    {
      "name": "Camera-Front"
    },
    {
      "children": [
        13
      ],
      "matrix": [
        1.0,
        0.0,
        0.0,
        0.0,
        0.0,
        1.0,
        0.0,
        0.0,
        0.0,
        0.0,
        1.0,
        0.0,
        1180.952869,
        -1893.347999,
        19817.778928,
        1.0
      ],
      "name": "View-Top"
    },
    {
      "name": "Camera-Top"
    },
    {
      "children": [
        15
      ],
      "matrix": [
        0.838671,
        0.544639,
        0.0,
        0.0,
        -0.380353,
        0.585692,
        0.715749,
        0.0,
        0.389825,
        -0.600277,
        0.698358,
        0.0,
        3693.397268,
        -295.480737,
        2534.465211,
        1.0
      ],
      "name": "View-01"
    },
    {
      "name": "Camera-01"
    }
  ],
  "samplers": [
    {
      "magFilter": 9729,
      "minFilter": 9987,
      "wrapS": 10497,
      "wrapT": 10497
    }
  ],
  "scene": 0,
  "scenes": [
    {
      "name": "Sketchfab_Scene",
      "nodes": [
        0
      ]
    }
  ],
  "textures": [
    {
      "sampler": 0,
      "source": 0
    }
  ]
}
