{
  "accessors": [
    {
      "bufferView": 2,
      "componentType": 5126,
      "count": 3775,
      "max": [
        3069.4130859375,
        -3293.06005859375,
        697.8136596679688
      ],
      "min": [
        2205.107421875,
        -3897.224609375,
        0.0
      ],
      "type": "VEC3"
    },
    {
      "bufferView": 2,
      "byteOffset": 45300,
      "componentType": 5126,
      "count": 3775,
      "max": [
        0.9989596605300903,
        0.9996741414070129,
        0.9986510276794434
      ],
      "min": [
        -0.9979112148284912,
        -0.9998247623443604,
        -0.9998584985733032
      ],
      "type": "VEC3"
    },
    {
      "bufferView": 1,
      "componentType": 5126,
      "count": 3775,
      "max": [
        2.9609599113464355,
        1.3956270217895508
      ],
      "min": [
        -1.8954590559005737,
        -1.9634480476379395
      ],
      "type": "VEC2"
    },
    {
      "bufferView": 0,
      "componentType": 5125,
      "count": 13692,
      "type": "SCALAR"
    },
    {
      "bufferView": 2,
      "byteOffset": 90600,
      "componentType": 5126,
      "count": 592,
      "max": [
        3071.1513671875,
        -3292.88720703125,
        697.8136596679688
      ],
      "min": [
        2203.88818359375,
        -3897.224609375,
        0.0
      ],
      "type": "VEC3"
    },
    {
      "bufferView": 2,
      "byteOffset": 97704,
      "componentType": 5126,
      "count": 592,
      "max": [
        0.9819342494010925,
        0.9982632398605347,
        0.994475245475769
      ],
      "min": [
        -0.9996044635772705,
        -0.9981060028076172,
        -1.0
      ],
      "type": "VEC3"
    },
    {
      "bufferView": 0,
      "byteOffset": 54768,
      "componentType": 5125,
      "count": 1776,
      "type": "SCALAR"
    },
    {
      "bufferView": 2,
      "byteOffset": 104808,
      "componentType": 5126,
      "count": 3703,
      "max": [
        3071.1513671875,
        -3292.88720703125,
        697.0194091796875
      ],
      "min": [
        2203.88818359375,
        -3896.6865234375,
        0.0
      ],
      "type": "VEC3"
    },
    {
      "bufferView": 2,
      "byteOffset": 149244,
      "componentType": 5126,
      "count": 3703,
      "max": [
        0.9996466636657715,
        0.9996838569641113,
        0.9985264539718628
      ],
      "min": [
        -0.9981046319007874,
        -0.9998142123222351,
        -0.9998756647109985
      ],
      "type": "VEC3"
    },
    {
      "bufferView": 1,
      "byteOffset": 30200,
      "componentType": 5126,
      "count": 3703,
      "max": [
        2.826464891433716,
        1.3940390348434448
      ],
      "min": [
        -1.7637150287628174,
        -1.834436058998108
      ],
      "type": "VEC2"
    },
    {
      "bufferView": 0,
      "byteOffset": 61872,
      "componentType": 5125,
      "count": 13692,
      "type": "SCALAR"
    },
    {
      "bufferView": 2,
      "byteOffset": 193680,
      "componentType": 5126,
      "count": 3439,
      "max": [
        5362.4580078125,
        -3162.148681640625,
        695.9414672851563
      ],
      "min": [
        4435.2861328125,
        -4025.999267578125,
        0.0
      ],
      "type": "VEC3"
    },
    {
      "bufferView": 2,
      "byteOffset": 234948,
      "componentType": 5126,
      "count": 3439,
      "max": [
        0.9990890026092529,
        0.9985953569412231,
        0.9996386170387268
      ],
      "min": [
        -0.9982043504714966,
        -0.999714732170105,
        -0.9993308782577515
      ],
      "type": "VEC3"
    },
    {
      "bufferView": 1,
      "byteOffset": 59824,
      "componentType": 5126,
      "count": 3439,
      "max": [
        2.3079640865325928,
        1.3918830156326294
      ],
      "min": [
        -1.3408960103988647,
        -0.8680279850959778
      ],
      "type": "VEC2"
    },
    {
      "bufferView": 0,
      "byteOffset": 116640,
      "componentType": 5125,
      "count": 12438,
      "type": "SCALAR"
    },
    {
      "bufferView": 2,
      "byteOffset": 276216,
      "componentType": 5126,
      "count": 732,
      "max": [
        5365.5810546875,
        -3162.148681640625,
        695.9414672851563
      ],
      "min": [
        4434.18701171875,
        -4025.999267578125,
        0.0
      ],
      "type": "VEC3"
    },
    {
      "bufferView": 2,
      "byteOffset": 285000,
      "componentType": 5126,
      "count": 732,
      "max": [
        0.9989094734191895,
        0.9970598816871643,
        0.9953449964523315
      ],
      "min": [
        -0.991906464099884,
        -0.9982444643974304,
        -1.0
      ],
      "type": "VEC3"
    },
    {
      "bufferView": 0,
      "byteOffset": 166392,
      "componentType": 5125,
      "count": 2196,
      "type": "SCALAR"
    },
    {
      "bufferView": 2,
      "byteOffset": 293784,
      "componentType": 5126,
      "count": 3444,
      "max": [
        5365.5810546875,
        -3164.767333984375,
        695.9275512695313
      ],
      "min": [
        4434.18701171875,
        -4024.4521484375,
        0.0
      ],
      "type": "VEC3"
    },
    {
      "bufferView": 2,
      "byteOffset": 335112,
      "componentType": 5126,
      "count": 3444,
      "max": [
        0.998986005783081,
        0.9986977577209473,
        0.9998253583908081
      ],
      "min": [
        -0.9985141158103943,
        -0.9997450113296509,
        -0.999442458152771
      ],
      "type": "VEC3"
    },
    {
      "bufferView": 1,
      "byteOffset": 87336,
      "componentType": 5126,
      "count": 3444,
      "max": [
        2.131387948989868,
        1.391855001449585
      ],
      "min": [
        -1.1762620210647583,
        -1.0783979892730713
      ],
      "type": "VEC2"
    },
    {
      "bufferView": 0,
      "byteOffset": 175176,
      "componentType": 5125,
      "count": 12438,
      "type": "SCALAR"
    }
  ],
  "asset": {
    "extras": {
      "author": "TourFromHome (https://sketchfab.com/TourFromHome)",
      "license": "CC-BY-4.0 (http://creativecommons.org/licenses/by/4.0/)",
      "source": "https://sketchfab.com/3d-models/scene09-59bdcc7f93bb44559423088237fe404c",
      "title": "Scene09"
    },
    "generator": "Sketchfab-11.12.0",
    "version": "2.0"
  },
  "bufferViews": [
    {
      "buffer": 0,
      "byteLength": 224928,
      "name": "floatBufferViews",
      "target": 34963
    },
    {
      "buffer": 0,
      "byteLength": 114888,
      "byteOffset": 224928,
      "byteStride": 8,
      "name": "floatBufferViews",
      "target": 34962
    },
    {
      "buffer": 0,
      "byteLength": 376440,
      "byteOffset": 339816,
      "byteStride": 12,
      "name": "floatBufferViews",
      "target": 34962
    }
  ],
  "buffers": [
    {
      "byteLength": 716256,
      "uri": "scene.bin"
    }
  ],
  "images": [
    {
      "uri": "textures/Material-_Orange_Topology_baseColor.jpeg"
    },
    {
      "uri": "textures/Material-_White_Topology_baseColor.jpeg"
    },
    {
      "uri": "textures/Material-_Green_Topology_baseColor.jpeg"
    }
  ],
  "materials": [
    {
      "doubleSided": true,
      "name": "Material-_Orange_Topology",
      "pbrMetallicRoughness": {
        "baseColorTexture": {
          "index": 0
        },
        "metallicFactor": 0.0,
        "roughnessFactor": 0.6
      }
    },
    {
      "doubleSided": true,
      "name": "Material-Plaster__1",
      "pbrMetallicRoughness": {
        "baseColorFactor": [
          0.101961,
          0.537255,
          0.670588,
          1.0
        ],
        "metallicFactor": 0.0,
        "roughnessFactor": 0.6
      }
    },
    {
      "doubleSided": true,
      "name": "Material-_White_Topology",
      "pbrMetallicRoughness": {
        "baseColorTexture": {
          "index": 1
        },
        "metallicFactor": 0.0,
        "roughnessFactor": 0.6
      }
    },
    {
      "doubleSided": true,
      "name": "Material-_White_Topology_0",
      "pbrMetallicRoughness": {
        "baseColorTexture": {
          "index": 1
        },
        "metallicFactor": 0.0,
        "roughnessFactor": 0.6
      }
    },
    {
      "doubleSided": true,
      "name": "Material-Plaster",
      "pbrMetallicRoughness": {
        "baseColorFactor": [
          0.670588,
          0.329412,
          0.101961,
          1.0
        ],
        "metallicFactor": 0.0,
        "roughnessFactor": 0.6
      }
    },
    {
      "doubleSided": true,
      "name": "Material-_Green_Topology",
      "pbrMetallicRoughness": {
        "baseColorTexture": {
          "index": 2
        },
        "metallicFactor": 0.0,
        "roughnessFactor": 0.6
      }
    }
  ],
  "meshes": [
    {
      "name": "material-aee410a3-4779-4cfe-9088-1a8992e87a6e",
      "primitives": [
        {
          "attributes": {
            "NORMAL": 1,
            "POSITION": 0,
            "TEXCOORD_0": 2
          },
          "indices": 3,
          "material": 5,
          "mode": 4
        }
      ]
    },
    {
      "name": "material-c2791af5-9c63-4293-9ec2-28dfbd675b11",
      "primitives": [
        {
          "attributes": {
            "NORMAL": 5,
            "POSITION": 4
          },
          "indices": 6,
          "material": 4,
          "mode": 4
        }
      ]
    },
    {
      "name": "material-b343d648-9726-408e-baae-1eecfa4ccb37",
      "primitives": [
        {
          "attributes": {
            "NORMAL": 8,
            "POSITION": 7,
            "TEXCOORD_0": 9
          },
          "indices": 10,
          "material": 3,
          "mode": 4
        }
      ]
    },
    {
      "name": "material-a7266ad8-ea85-4634-8762-8ef4ace9644d",
      "primitives": [
        {
          "attributes": {
            "NORMAL": 12,
            "POSITION": 11,
            "TEXCOORD_0": 13
          },
          "indices": 14,
          "material": 2,
          "mode": 4
        }
      ]
    },
    {
      "name": "material-a217503b-76b7-43d5-9724-fc81ef77489f",
      "primitives": [
        {
          "attributes": {
            "NORMAL": 16,
            "POSITION": 15
          },
          "indices": 17,
          "material": 1,
          "mode": 4
        }
      ]
    },
    {
      "name": "material-acaa975b-d7af-4f6e-99ba-5ff3e112df98",
      "primitives": [
        {
          "attributes": {
            "NORMAL": 19,
            "POSITION": 18,
            "TEXCOORD_0": 20
          },
          "indices": 21,
          "material": 0,
          "mode": 4
        }
      ]
    }
  ],
  "nodes": [
    {
      "children": [
        1
      ],
      "matrix": [
        1.0,
        0.0,
        0.0,
        0.0,
        0.0,
        2.220446049250313e-16,
        -1.0,
        0.0,
        0.0,
        1.0,
        2.220446049250313e-16,
        0.0,
        0.0,
        0.0,
        0.0,
        1.0
      ],
      "name": "Sketchfab_model"
    },
    {
      "children": [
        2,
        4,
        6,
        8,
        10,
        12,
        14,
        16,
        18,
        20
      ],
      "name": "Collada visual scene group"
    },
    {
      "children": [
        3
      ],
      "name": "Mesh"
    },
    {
      "mesh": 0,
      "name": "material-aee410a3-4779-4cfe-9088-1a8992e87a6e"
    },
    {
      "children": [
        5
      ],
      "name": "Mesh"
    },
    {
      "mesh": 1,
      "name": "material-c2791af5-9c63-4293-9ec2-28dfbd675b11"
    },
    {
      "children": [
        7
      ],
      "name": "Mesh"
    },
    {
      "mesh": 2,
      "name": "material-b343d648-9726-408e-baae-1eecfa4ccb37"
    },
    {
      "children": [
        9
      ],
      "name": "Mesh"
    },
    {
      "mesh": 3,
      "name": "material-a7266ad8-ea85-4634-8762-8ef4ace9644d"
    },
    {
      "children": [
        11
      ],
      "name": "Mesh"
    },
    {
      "mesh": 4,
      "name": "material-a217503b-76b7-43d5-9724-fc81ef77489f"
    },
    {
      "children": [
        13
      ],
      "name": "Mesh"
    },
    {
      "mesh": 5,
      "name": "material-acaa975b-d7af-4f6e-99ba-5ff3e112df98"
    },
    {
      "children": [
        15
      ],
      "matrix": [
        0.0,
        1.0,
        0.0,
        0.0,
        0.0,
        0.0,
        1.0,
        0.0,
        1.0,
        0.0,
        0.0,
        0.0,
        21365.345799,
        2098.878986,
        15.630557,
        1.0
      ],
      "name": "View-Right"
    },
    {
      "name": "Camera-Right"
    },
    {
      "children": [
        17
      ],
      "matrix": [
        1.0,
        0.0,
        0.0,
        0.0,
        0.0,
        0.0,
        1.0,
        0.0,
        0.0,
        -1.0,
        0.0,
        0.0,
        6830.629466,
        -17476.145847,
        17.785501,
        1.0
      ],
      "name": "View-Front"
    },
    {
      "name": "Camera-Front"
    },
    {
      "children": [
        19
      ],
      "matrix": [
        1.0,
        0.0,
        0.0,
        0.0,
        0.0,
        1.0,
        0.0,
        0.0,
        0.0,
        0.0,
        1.0,
        0.0,
        4205.405594,
        -2251.532619,
        19817.778928,
        1.0
      ],
      "name": "View-Top"
    },
    {
      "name": "Camera-Top"
    },
    {
      "children": [
        21
      ],
      "matrix": [
        -0.495459,
        0.868632,
        0.0,
        0.0,
        -0.335146,
        -0.191164,
        0.922569,
        0.0,
        0.801372,
        0.457095,
        0.385832,
        0.0,
        5522.106339,
        -2970.657817,
        823.416812,
        1.0
      ],
      "name": "View-01"
    },
    {
      "name": "Camera-01"
    }
  ],
  "samplers": [
    {
      "magFilter": 9729,
      "minFilter": 9987,
      "wrapS": 10497,
      "wrapT": 10497
    }
  ],
  "scene": 0,
  "scenes": [
    {
      "name": "Sketchfab_Scene",
      "nodes": [
        0
      ]
    }
  ],
  "textures": [
    {
      "sampler": 0,
      "source": 0
    },
    {
      "sampler": 0,
      "source": 1
    },
    {
      "sampler": 0,
      "source": 2
    }
  ]
}
