{
  "accessors": [
    {
      "bufferView": 2,
      "componentType": 5126,
      "count": 65532,
      "max": [
        2848.091064453125,
        2246.806884765625,
        651.7689208984375
      ],
      "min": [
        1879.9600830078125,
        1308.5078125,
        0.0
      ],
      "type": "VEC3"
    },
    {
      "bufferView": 2,
      "byteOffset": 786384,
      "componentType": 5126,
      "count": 65532,
      "max": [
        0.9999575018882751,
        0.999948263168335,
        0.9999839067459106
      ],
      "min": [
        -0.9999169707298279,
        -0.999926745891571,
        -0.9999569058418274
      ],
      "type": "VEC3"
    },
    {
      "bufferView": 1,
      "componentType": 5126,
      "count": 65532,
      "max": [
        0.9861699938774109,
        0.9989359974861145
      ],
      "min": [
        0.3287230134010315,
        0.0010639999527484179
      ],
      "type": "VEC2"
    },
    {
      "bufferView": 0,
      "componentType": 5125,
      "count": 84630,
      "type": "SCALAR"
    },
    {
      "bufferView": 2,
      "byteOffset": 1572768,
      "componentType": 5126,
      "count": 65533,
      "max": [
        2837.6298828125,
        2196.924560546875,
        672.92333984375
      ],
      "min": [
        1908.8653564453125,
        1206.6322021484375,
        0.15119951963424683
      ],
      "type": "VEC3"
    },
    {
      "bufferView": 2,
      "byteOffset": 2359164,
      "componentType": 5126,
      "count": 65533,
      "max": [
        0.9999984502792358,
        0.9999338984489441,
        1.0
      ],
      "min": [
        -0.999999463558197,
        -0.9999338984489441,
        -1.0
      ],
      "type": "VEC3"
    },
    {
      "bufferView": 1,
      "byteOffset": 524256,
      "componentType": 5126,
      "count": 65533,
      "max": [
        0.6031910181045532,
        0.9989359974861145
      ],
      "min": [
        0.0010639999527484179,
        0.0010639999527484179
      ],
      "type": "VEC2"
    },
    {
      "bufferView": 0,
      "byteOffset": 338520,
      "componentType": 5125,
      "count": 76461,
      "type": "SCALAR"
    },
    {
      "bufferView": 2,
      "byteOffset": 3145560,
      "componentType": 5126,
      "count": 48681,
      "max": [
        2686.2939453125,
        2246.806884765625,
        640.6306762695313
      ],
      "min": [
        1879.9600830078125,
        1308.5078125,
        0.0
      ],
      "type": "VEC3"
    },
    {
      "bufferView": 2,
      "byteOffset": 3729732,
      "componentType": 5126,
      "count": 48681,
      "max": [
        0.999997615814209,
        0.9998148679733276,
        0.9998806715011597
      ],
      "min": [
        -0.9999151229858398,
        -0.9999716281890869,
        -0.9999494552612305
      ],
      "type": "VEC3"
    },
    {
      "bufferView": 1,
      "byteOffset": 1048520,
      "componentType": 5126,
      "count": 48681,
      "max": [
        0.9946810007095337,
        0.9989359974861145
      ],
      "min": [
        0.6010640263557434,
        0.0010639999527484179
      ],
      "type": "VEC2"
    },
    {
      "bufferView": 0,
      "byteOffset": 644364,
      "componentType": 5125,
      "count": 48681,
      "type": "SCALAR"
    },
    {
      "bufferView": 2,
      "byteOffset": 4313904,
      "componentType": 5126,
      "count": 65532,
      "max": [
        5650.6806640625,
        2186.644775390625,
        677.51904296875
      ],
      "min": [
        5089.9853515625,
        1397.1844482421875,
        0.309479296207428
      ],
      "type": "VEC3"
    },
    {
      "bufferView": 2,
      "byteOffset": 5100288,
      "componentType": 5126,
      "count": 65532,
      "max": [
        0.9999691247940063,
        0.9998192191123962,
        0.999775230884552
      ],
      "min": [
        -0.9998156428337097,
        -0.9996989965438843,
        -0.9997659921646118
      ],
      "type": "VEC3"
    },
    {
      "bufferView": 1,
      "byteOffset": 1437968,
      "componentType": 5126,
      "count": 65532,
      "max": [
        0.9903849959373474,
        0.9992600083351135
      ],
      "min": [
        0.6812130212783813,
        0.0007399999885819852
      ],
      "type": "VEC2"
    },
    {
      "bufferView": 0,
      "byteOffset": 839088,
      "componentType": 5125,
      "count": 98298,
      "type": "SCALAR"
    },
    {
      "bufferView": 2,
      "byteOffset": 5886672,
      "componentType": 5126,
      "count": 65532,
      "max": [
        5519.69873046875,
        2170.765380859375,
        668.954833984375
      ],
      "min": [
        4754.05908203125,
        1211.2584228515625,
        -3.9361584001215894e-16
      ],
      "type": "VEC3"
    },
    {
      "bufferView": 2,
      "byteOffset": 6673056,
      "componentType": 5126,
      "count": 65532,
      "max": [
        0.999961256980896,
        0.9999127388000488,
        0.9995911121368408
      ],
      "min": [
        -0.999961256980896,
        -0.9999433755874634,
        -0.9999834895133972
      ],
      "type": "VEC3"
    },
    {
      "bufferView": 1,
      "byteOffset": 1962224,
      "componentType": 5126,
      "count": 65532,
      "max": [
        0.6826919913291931,
        0.9992600083351135
      ],
      "min": [
        0.3054729998111725,
        0.0007399999885819852
      ],
      "type": "VEC2"
    },
    {
      "bufferView": 0,
      "byteOffset": 1232280,
      "componentType": 5125,
      "count": 98298,
      "type": "SCALAR"
    },
    {
      "bufferView": 2,
      "byteOffset": 7459440,
      "componentType": 5126,
      "count": 65534,
      "max": [
        5859.98486328125,
        1994.04150390625,
        667.5598754882813
      ],
      "min": [
        4754.2998046875,
        1211.2584228515625,
        1.2778621912002563
      ],
      "type": "VEC3"
    },
    {
      "bufferView": 2,
      "byteOffset": 8245848,
      "componentType": 5126,
      "count": 65534,
      "max": [
        0.9999811053276062,
        0.9996776580810547,
        0.9999836683273315
      ],
      "min": [
        -0.9999811053276062,
        -0.9998629093170166,
        -0.9998507499694824
      ],
      "type": "VEC3"
    },
    {
      "bufferView": 1,
      "byteOffset": 2486480,
      "componentType": 5126,
      "count": 65534,
      "max": [
        0.5465980172157288,
        0.9992600083351135
      ],
      "min": [
        0.1309169977903366,
        0.0007399999885819852
      ],
      "type": "VEC2"
    },
    {
      "bufferView": 0,
      "byteOffset": 1625472,
      "componentType": 5125,
      "count": 70146,
      "type": "SCALAR"
    },
    {
      "bufferView": 2,
      "byteOffset": 9032256,
      "componentType": 5126,
      "count": 65532,
      "max": [
        5973.17578125,
        1953.5166015625,
        499.68487548828125
      ],
      "min": [
        5490.90234375,
        1316.8055419921875,
        0.8601070046424866
      ],
      "type": "VEC3"
    },
    {
      "bufferView": 2,
      "byteOffset": 9818640,
      "componentType": 5126,
      "count": 65532,
      "max": [
        0.999952495098114,
        0.9999845027923584,
        0.9998745322227478
      ],
      "min": [
        -0.9998800158500671,
        -0.9998803734779358,
        -0.9999638795852661
      ],
      "type": "VEC3"
    },
    {
      "bufferView": 1,
      "byteOffset": 3010752,
      "componentType": 5126,
      "count": 65532,
      "max": [
        0.1649409979581833,
        0.9992600083351135
      ],
      "min": [
        0.0007399999885819852,
        0.0007399999885819852
      ],
      "type": "VEC2"
    },
    {
      "bufferView": 0,
      "byteOffset": 1906056,
      "componentType": 5125,
      "count": 84858,
      "type": "SCALAR"
    },
    {
      "bufferView": 2,
      "byteOffset": 10605024,
      "componentType": 5126,
      "count": 65534,
      "max": [
        5973.17578125,
        2171.976806640625,
        668.954833984375
      ],
      "min": [
        4756.5869140625,
        1231.8043212890625,
        0.9536227583885193
      ],
      "type": "VEC3"
    },
    {
      "bufferView": 2,
      "byteOffset": 11391432,
      "componentType": 5126,
      "count": 65534,
      "max": [
        0.9999858736991882,
        0.9999499917030334,
        0.9999114871025085
      ],
      "min": [
        -0.9998475313186646,
        -0.999991774559021,
        -0.9999613761901855
      ],
      "type": "VEC3"
    },
    {
      "bufferView": 1,
      "byteOffset": 3535008,
      "componentType": 5126,
      "count": 65534,
      "max": [
        0.673816978931427,
        0.9992600083351135
      ],
      "min": [
        0.16346199810504913,
        0.0007399999885819852
      ],
      "type": "VEC2"
    },
    {
      "bufferView": 0,
      "byteOffset": 2245488,
      "componentType": 5125,
      "count": 71010,
      "type": "SCALAR"
    },
    {
      "bufferView": 2,
      "byteOffset": 12177840,
      "componentType": 5126,
      "count": 61338,
      "max": [
        5859.98486328125,
        2186.644775390625,
        677.51904296875
      ],
      "min": [
        5090.294921875,
        1387.7459716796875,
        1.3494478464126587
      ],
      "type": "VEC3"
    },
    {
      "bufferView": 2,
      "byteOffset": 12913896,
      "componentType": 5126,
      "count": 61338,
      "max": [
        0.9998881220817566,
        0.9999786615371704,
        0.9998948574066162
      ],
      "min": [
        -0.9999996423721313,
        -0.9998071193695068,
        -0.9999773502349854
      ],
      "type": "VEC3"
    },
    {
      "bufferView": 1,
      "byteOffset": 4059280,
      "componentType": 5126,
      "count": 61338,
      "max": [
        0.9963020086288452,
        0.9992600083351135
      ],
      "min": [
        0.1309169977903366,
        0.0007399999885819852
      ],
      "type": "VEC2"
    },
    {
      "bufferView": 0,
      "byteOffset": 2529528,
      "componentType": 5125,
      "count": 61338,
      "type": "SCALAR"
    }
  ],
  "asset": {
    "extras": {
      "author": "TourFromHome (https://sketchfab.com/TourFromHome)",
      "license": "CC-BY-4.0 (http://creativecommons.org/licenses/by/4.0/)",
      "source": "https://sketchfab.com/3d-models/scene10-977a5d6fb7854e64a96112e465b426a2",
      "title": "Scene10"
    },
    "generator": "Sketchfab-10.88.0",
    "version": "2.0"
  },
  "bufferViews": [
    {
      "buffer": 0,
      "byteLength": 2774880,
      "name": "floatBufferViews",
      "target": 34963
    },
    {
      "buffer": 0,
      "byteLength": 4549984,
      "byteOffset": 2774880,
      "byteStride": 8,
      "name": "floatBufferViews",
      "target": 34962
    },
    {
      "buffer": 0,
      "byteLength": 13649952,
      "byteOffset": 7324864,
      "byteStride": 12,
      "name": "floatBufferViews",
      "target": 34962
    }
  ],
  "buffers": [
    {
      "byteLength": 20974816,
      "uri": "scene.bin"
    }
  ],
  "images": [
    {
      "uri": "textures/Material-Curl02__2_baseColor.png"
    },
    {
      "uri": "textures/material-aa845507-5992-49a8-84bf-92148f876dd5_baseColor.png"
    }
  ],
  "materials": [
    {
      "doubleSided": true,
      "name": "Material-Curl02__2",
      "pbrMetallicRoughness": {
        "baseColorTexture": {
          "index": 0
        },
        "metallicFactor": 0.0,
        "roughnessFactor": 0.6
      }
    },
    {
      "doubleSided": true,
      "name": "material-aa845507-5992-49a8-84bf-92148f876dd5",
      "pbrMetallicRoughness": {
        "baseColorTexture": {
          "index": 1
        },
        "metallicFactor": 0.0,
        "roughnessFactor": 0.6
      }
    }
  ],
  "meshes": [
    {
      "name": "material-aa845507-5992-49a8-84bf-92148f876dd5",
      "primitives": [
        {
          "attributes": {
            "NORMAL": 1,
            "POSITION": 0,
            "TEXCOORD_0": 2
          },
          "indices": 3,
          "material": 1,
          "mode": 4
        }
      ]
    },
    {
      "name": "material-aa845507-5992-49a8-84bf-92148f876dd5",
      "primitives": [
        {
          "attributes": {
            "NORMAL": 5,
            "POSITION": 4,
            "TEXCOORD_0": 6
          },
          "indices": 7,
          "material": 1,
          "mode": 4
        }
      ]
    },
    {
      "name": "material-aa845507-5992-49a8-84bf-92148f876dd5",
      "primitives": [
        {
          "attributes": {
            "NORMAL": 9,
            "POSITION": 8,
            "TEXCOORD_0": 10
          },
          "indices": 11,
          "material": 1,
          "mode": 4
        }
      ]
    },
    {
      "name": "material-a9a2099a-e6fb-41b1-ac62-f02159920209",
      "primitives": [
        {
          "attributes": {
            "NORMAL": 13,
            "POSITION": 12,
            "TEXCOORD_0": 14
          },
          "indices": 15,
          "material": 0,
          "mode": 4
        }
      ]
    },
    {
      "name": "material-a9a2099a-e6fb-41b1-ac62-f02159920209",
      "primitives": [
        {
          "attributes": {
            "NORMAL": 17,
            "POSITION": 16,
            "TEXCOORD_0": 18
          },
          "indices": 19,
          "material": 0,
          "mode": 4
        }
      ]
    },
    {
      "name": "material-a9a2099a-e6fb-41b1-ac62-f02159920209",
      "primitives": [
        {
          "attributes": {
            "NORMAL": 21,
            "POSITION": 20,
            "TEXCOORD_0": 22
          },
          "indices": 23,
          "material": 0,
          "mode": 4
        }
      ]
    },
    {
      "name": "material-a9a2099a-e6fb-41b1-ac62-f02159920209",
      "primitives": [
        {
          "attributes": {
            "NORMAL": 25,
            "POSITION": 24,
            "TEXCOORD_0": 26
          },
          "indices": 27,
          "material": 0,
          "mode": 4
        }
      ]
    },
    {
      "name": "material-a9a2099a-e6fb-41b1-ac62-f02159920209",
      "primitives": [
        {
          "attributes": {
            "NORMAL": 29,
            "POSITION": 28,
            "TEXCOORD_0": 30
          },
          "indices": 31,
          "material": 0,
          "mode": 4
        }
      ]
    },
    {
      "name": "material-a9a2099a-e6fb-41b1-ac62-f02159920209",
      "primitives": [
        {
          "attributes": {
            "NORMAL": 33,
            "POSITION": 32,
            "TEXCOORD_0": 34
          },
          "indices": 35,
          "material": 0,
          "mode": 4
        }
      ]
    }
  ],
  "nodes": [
    {
      "children": [
        1
      ],
      "matrix": [
        1.0,
        0.0,
        0.0,
        0.0,
        0.0,
        2.220446049250313e-16,
        -1.0,
        0.0,
        0.0,
        1.0,
        2.220446049250313e-16,
        0.0,
        0.0,
        0.0,
        0.0,
        1.0
      ],
      "name": "Sketchfab_model"
    },
    {
      "children": [
        2,
        6,
        13,
        15,
        17,
        19
      ],
      "name": "Collada visual scene group"
    },
    {
      "children": [
        3,
        4,
        5
      ],
      "name": "Mesh"
    },
    {
      "mesh": 0,
      "name": "material-aa845507-5992-49a8-84bf-92148f876dd5"
    },
    {
      "mesh": 1,
      "name": "material-aa845507-5992-49a8-84bf-92148f876dd5"
    },
    {
      "mesh": 2,
      "name": "material-aa845507-5992-49a8-84bf-92148f876dd5"
    },
    {
      "children": [
        7,
        8,
        9,
        10,
        11,
        12
      ],
      "name": "Mesh"
    },
    {
      "mesh": 3,
      "name": "material-a9a2099a-e6fb-41b1-ac62-f02159920209"
    },
    {
      "mesh": 4,
      "name": "material-a9a2099a-e6fb-41b1-ac62-f02159920209"
    },
    {
      "mesh": 5,
      "name": "material-a9a2099a-e6fb-41b1-ac62-f02159920209"
    },
    {
      "mesh": 6,
      "name": "material-a9a2099a-e6fb-41b1-ac62-f02159920209"
    },
    {
      "mesh": 7,
      "name": "material-a9a2099a-e6fb-41b1-ac62-f02159920209"
    },
    {
      "mesh": 8,
      "name": "material-a9a2099a-e6fb-41b1-ac62-f02159920209"
    },
    {
      "children": [
        14
      ],
      "matrix": [
        0.0,
        1.0,
        0.0,
        0.0,
        0.0,
        0.0,
        1.0,
        0.0,
        1.0,
        0.0,
        0.0,
        0.0,
        21365.345799,
        4589.435684,
        568.015773,
        1.0
      ],
      "name": "View-Right"
    },
    {
      "name": "Camera-Right"
    },
    {
      "children": [
        16
      ],
      "matrix": [
        1.0,
        0.0,
        0.0,
        0.0,
        0.0,
        0.0,
        1.0,
        0.0,
        0.0,
        -1.0,
        0.0,
        0.0,
        8707.834744,
        -17476.145847,
        609.906095,
        1.0
      ],
      "name": "View-Front"
    },
    {
      "name": "Camera-Front"
    },
    {
      "children": [
        18
      ],
      "matrix": [
        1.0,
        0.0,
        0.0,
        0.0,
        0.0,
        1.0,
        0.0,
        0.0,
        0.0,
        0.0,
        1.0,
        0.0,
        1180.952869,
        -1893.347999,
        19817.778928,
        1.0
      ],
      "name": "View-Top"
    },
    {
      "name": "Camera-Top"
    },
    {
      "children": [
        20
      ],
      "matrix": [
        0.996493,
        0.083678,
        0.0,
        0.0,
        -0.040178,
        0.478469,
        0.877185,
        0.0,
        0.073401,
        -0.874108,
        0.480153,
        0.0,
        2840.05035,
        -919.530613,
        1432.224967,
        1.0
      ],
      "name": "View-01"
    },
    {
      "name": "Camera-01"
    }
  ],
  "samplers": [
    {
      "magFilter": 9729,
      "minFilter": 9987,
      "wrapS": 10497,
      "wrapT": 10497
    }
  ],
  "scene": 0,
  "scenes": [
    {
      "name": "Sketchfab_Scene",
      "nodes": [
        0
      ]
    }
  ],
  "textures": [
    {
      "sampler": 0,
      "source": 0
    },
    {
      "sampler": 0,
      "source": 1
    }
  ]
}
