{
  "accessors": [
    {
      "bufferView": 2,
      "componentType": 5126,
      "count": 65532,
      "max": [
        5650.6806640625,
        1819.9810791015625,
        456.3365478515625
      ],
      "min": [
        5172.5322265625,
        1397.0797119140625,
        0.309479296207428
      ],
      "type": "VEC3"
    },
    {
      "bufferView": 2,
      "byteOffset": 786384,
      "componentType": 5126,
      "count": 65532,
      "max": [
        0.9999390244483948,
        0.9999607801437378,
        0.999920666217804
      ],
      "min": [
        -0.9999390244483948,
        -0.9999607801437378,
        -0.999920666217804
      ],
      "type": "VEC3"
    },
    {
      "bufferView": 1,
      "componentType": 5126,
      "count": 65532,
      "max": [
        0.9993780255317688,
        0.9993780255317688
      ],
      "min": [
        0.8961439728736877,
        0.0006220000213943422
      ],
      "type": "VEC2"
    },
    {
      "bufferView": 0,
      "componentType": 5125,
      "count": 98298,
      "type": "SCALAR"
    },
    {
      "bufferView": 2,
      "byteOffset": 1572768,
      "componentType": 5126,
      "count": 65532,
      "max": [
        5628.14599609375,
        1840.6990966796875,
        542.43310546875
      ],
      "min": [
        5194.92822265625,
        1399.5631103515625,
        78.1482925415039
      ],
      "type": "VEC3"
    },
    {
      "bufferView": 2,
      "byteOffset": 2359152,
      "componentType": 5126,
      "count": 65532,
      "max": [
        0.9996457695960999,
        0.9998887777328491,
        0.9996417760848999
      ],
      "min": [
        -0.9996457695960999,
        -0.9998887777328491,
        -0.9996417760848999
      ],
      "type": "VEC3"
    },
    {
      "bufferView": 1,
      "byteOffset": 524256,
      "componentType": 5126,
      "count": 65532,
      "max": [
        0.8973879814147949,
        0.9993780255317688
      ],
      "min": [
        0.7941539883613586,
        0.0006220000213943422
      ],
      "type": "VEC2"
    },
    {
      "bufferView": 0,
      "byteOffset": 393192,
      "componentType": 5125,
      "count": 98298,
      "type": "SCALAR"
    },
    {
      "bufferView": 2,
      "byteOffset": 3145536,
      "componentType": 5126,
      "count": 65532,
      "max": [
        5563.2490234375,
        2186.578857421875,
        677.4555053710938
      ],
      "min": [
        5111.8701171875,
        1664.4737548828125,
        1.9312243461608887
      ],
      "type": "VEC3"
    },
    {
      "bufferView": 2,
      "byteOffset": 3931920,
      "componentType": 5126,
      "count": 65532,
      "max": [
        0.9997897744178772,
        0.9999693632125854,
        0.999991238117218
      ],
      "min": [
        -0.9997897744178772,
        -0.9999693632125854,
        -0.999991238117218
      ],
      "type": "VEC3"
    },
    {
      "bufferView": 1,
      "byteOffset": 1048512,
      "componentType": 5126,
      "count": 65532,
      "max": [
        0.7953979969024658,
        0.9993780255317688
      ],
      "min": [
        0.6946520209312439,
        0.0006220000213943422
      ],
      "type": "VEC2"
    },
    {
      "bufferView": 0,
      "byteOffset": 786384,
      "componentType": 5125,
      "count": 98298,
      "type": "SCALAR"
    },
    {
      "bufferView": 2,
      "byteOffset": 4718304,
      "componentType": 5126,
      "count": 65532,
      "max": [
        5520.19140625,
        2182.20361328125,
        658.21630859375
      ],
      "min": [
        4923.70263671875,
        1715.272705078125,
        78.66629791259766
      ],
      "type": "VEC3"
    },
    {
      "bufferView": 2,
      "byteOffset": 5504688,
      "componentType": 5126,
      "count": 65532,
      "max": [
        0.999963641166687,
        0.999907374382019,
        0.999987781047821
      ],
      "min": [
        -0.999963641166687,
        -0.999907374382019,
        -0.999987781047821
      ],
      "type": "VEC3"
    },
    {
      "bufferView": 1,
      "byteOffset": 1572768,
      "componentType": 5126,
      "count": 65532,
      "max": [
        0.6958950161933899,
        0.9993780255317688
      ],
      "min": [
        0.59266197681427,
        0.0006220000213943422
      ],
      "type": "VEC2"
    },
    {
      "bufferView": 0,
      "byteOffset": 1179576,
      "componentType": 5125,
      "count": 98298,
      "type": "SCALAR"
    },
    {
      "bufferView": 2,
      "byteOffset": 6291072,
      "componentType": 5126,
      "count": 65532,
      "max": [
        5223.5322265625,
        2089.0244140625,
        668.9468994140625
      ],
      "min": [
        4754.05908203125,
        1488.338134765625,
        1.2439310550689697
      ],
      "type": "VEC3"
    },
    {
      "bufferView": 2,
      "byteOffset": 7077456,
      "componentType": 5126,
      "count": 65532,
      "max": [
        0.9999757409095764,
        0.9999771118164063,
        0.9998148679733276
      ],
      "min": [
        -0.9999757409095764,
        -0.9999771118164063,
        -0.9998148679733276
      ],
      "type": "VEC3"
    },
    {
      "bufferView": 1,
      "byteOffset": 2097024,
      "componentType": 5126,
      "count": 65532,
      "max": [
        0.593904972076416,
        0.9993780255317688
      ],
      "min": [
        0.4906719923019409,
        0.0006220000213943422
      ],
      "type": "VEC2"
    },
    {
      "bufferView": 0,
      "byteOffset": 1572768,
      "componentType": 5125,
      "count": 98298,
      "type": "SCALAR"
    },
    {
      "bufferView": 2,
      "byteOffset": 7863840,
      "componentType": 5126,
      "count": 65532,
      "max": [
        5353.21337890625,
        1993.9752197265625,
        667.5598754882813
      ],
      "min": [
        4759.28857421875,
        1393.615234375,
        2.884632110595703
      ],
      "type": "VEC3"
    },
    {
      "bufferView": 2,
      "byteOffset": 8650224,
      "componentType": 5126,
      "count": 65532,
      "max": [
        0.9999879002571106,
        0.9999788999557495,
        0.9989046454429626
      ],
      "min": [
        -0.9999879002571106,
        -0.9999788999557495,
        -0.9989046454429626
      ],
      "type": "VEC3"
    },
    {
      "bufferView": 1,
      "byteOffset": 2621280,
      "componentType": 5126,
      "count": 65532,
      "max": [
        0.4919149875640869,
        0.9993780255317688
      ],
      "min": [
        0.3886820077896118,
        0.0006220000213943422
      ],
      "type": "VEC2"
    },
    {
      "bufferView": 0,
      "byteOffset": 1965960,
      "componentType": 5125,
      "count": 98298,
      "type": "SCALAR"
    },
    {
      "bufferView": 2,
      "byteOffset": 9436608,
      "componentType": 5126,
      "count": 65532,
      "max": [
        5973.125,
        1930.601806640625,
        484.1030578613281
      ],
      "min": [
        4849.96337890625,
        1288.682861328125,
        0.8842586278915405
      ],
      "type": "VEC3"
    },
    {
      "bufferView": 2,
      "byteOffset": 10222992,
      "componentType": 5126,
      "count": 65532,
      "max": [
        0.9999932646751404,
        0.9999881386756897,
        0.9998908638954163
      ],
      "min": [
        -0.9999932646751404,
        -0.9999881386756897,
        -0.9998908638954163
      ],
      "type": "VEC3"
    },
    {
      "bufferView": 1,
      "byteOffset": 3145536,
      "componentType": 5126,
      "count": 65532,
      "max": [
        0.3899250030517578,
        0.9993780255317688
      ],
      "min": [
        0.04539800062775612,
        0.0006220000213943422
      ],
      "type": "VEC2"
    },
    {
      "bufferView": 0,
      "byteOffset": 2359152,
      "componentType": 5125,
      "count": 98298,
      "type": "SCALAR"
    },
    {
      "bufferView": 2,
      "byteOffset": 11009376,
      "componentType": 5126,
      "count": 65532,
      "max": [
        5952.35400390625,
        1953.532470703125,
        499.68487548828125
      ],
      "min": [
        5418.50390625,
        1316.8055419921875,
        0.9154219627380371
      ],
      "type": "VEC3"
    },
    {
      "bufferView": 2,
      "byteOffset": 11795760,
      "componentType": 5126,
      "count": 65532,
      "max": [
        0.9999786019325256,
        0.9998422265052795,
        0.9999516606330872
      ],
      "min": [
        -0.9999786019325256,
        -0.9998422265052795,
        -0.9999516606330872
      ],
      "type": "VEC3"
    },
    {
      "bufferView": 1,
      "byteOffset": 3669792,
      "componentType": 5126,
      "count": 65532,
      "max": [
        0.19838300347328186,
        0.9993780255317688
      ],
      "min": [
        0.0006220000213943422,
        0.0006220000213943422
      ],
      "type": "VEC2"
    },
    {
      "bufferView": 0,
      "byteOffset": 2752344,
      "componentType": 5125,
      "count": 98298,
      "type": "SCALAR"
    },
    {
      "bufferView": 2,
      "byteOffset": 12582144,
      "componentType": 5126,
      "count": 65532,
      "max": [
        5773.90234375,
        1760.909423828125,
        652.2347412109375
      ],
      "min": [
        4890.931640625,
        1231.7734375,
        140.48460388183594
      ],
      "type": "VEC3"
    },
    {
      "bufferView": 2,
      "byteOffset": 13368528,
      "componentType": 5126,
      "count": 65532,
      "max": [
        0.9999088644981384,
        0.9999643564224243,
        0.9999620914459229
      ],
      "min": [
        -0.9999088644981384,
        -0.9999643564224243,
        -0.9999620914459229
      ],
      "type": "VEC3"
    },
    {
      "bufferView": 1,
      "byteOffset": 4194048,
      "componentType": 5126,
      "count": 65532,
      "max": [
        0.30037298798561096,
        0.9993780255317688
      ],
      "min": [
        0.19713899493217468,
        0.0006220000213943422
      ],
      "type": "VEC2"
    },
    {
      "bufferView": 0,
      "byteOffset": 3145536,
      "componentType": 5125,
      "count": 98298,
      "type": "SCALAR"
    },
    {
      "bufferView": 2,
      "byteOffset": 14154912,
      "componentType": 5126,
      "count": 55476,
      "max": [
        5498.0791015625,
        1622.288330078125,
        611.7317504882813
      ],
      "min": [
        4879.33251953125,
        1211.2532958984375,
        -3.9361584001215894e-16
      ],
      "type": "VEC3"
    },
    {
      "bufferView": 2,
      "byteOffset": 14820624,
      "componentType": 5126,
      "count": 55476,
      "max": [
        0.9998908638954163,
        0.9998892545700073,
        0.9998278617858887
      ],
      "min": [
        -0.9998908638954163,
        -0.9998892545700073,
        -0.9998278617858887
      ],
      "type": "VEC3"
    },
    {
      "bufferView": 1,
      "byteOffset": 4718304,
      "componentType": 5126,
      "count": 55476,
      "max": [
        0.38495001196861267,
        0.9993780255317688
      ],
      "min": [
        0.29912900924682617,
        0.0006220000213943422
      ],
      "type": "VEC2"
    },
    {
      "bufferView": 0,
      "byteOffset": 3538728,
      "componentType": 5125,
      "count": 83214,
      "type": "SCALAR"
    }
  ],
  "asset": {
    "extras": {
      "author": "TourFromHome (https://sketchfab.com/TourFromHome)",
      "license": "CC-BY-4.0 (http://creativecommons.org/licenses/by/4.0/)",
      "source": "https://sketchfab.com/3d-models/scene08-9ab1f8ad640b44d2a3c2a9aa916c6a88",
      "title": "Scene08"
    },
    "generator": "Sketchfab-10.85.0",
    "version": "2.0"
  },
  "bufferViews": [
    {
      "buffer": 0,
      "byteLength": 3871584,
      "name": "floatBufferViews",
      "target": 34963
    },
    {
      "buffer": 0,
      "byteLength": 5162112,
      "byteOffset": 3871584,
      "byteStride": 8,
      "name": "floatBufferViews",
      "target": 34962
    },
    {
      "buffer": 0,
      "byteLength": 15486336,
      "byteOffset": 9033696,
      "byteStride": 12,
      "name": "floatBufferViews",
      "target": 34962
    }
  ],
  "buffers": [
    {
      "byteLength": 24520032,
      "uri": "scene.bin"
    }
  ],
  "images": [
    {
      "uri": "textures/Material-Curl02_baseColor.png"
    }
  ],
  "materials": [
    {
      "doubleSided": true,
      "name": "Material-Curl02",
      "pbrMetallicRoughness": {
        "baseColorTexture": {
          "index": 0
        },
        "metallicFactor": 0.0,
        "roughnessFactor": 0.6
      }
    }
  ],
  "meshes": [
    {
      "name": "material-a57e8b3c-a72e-4e56-9d8f-716af9bf6661",
      "primitives": [
        {
          "attributes": {
            "NORMAL": 1,
            "POSITION": 0,
            "TEXCOORD_0": 2
          },
          "indices": 3,
          "material": 0,
          "mode": 4
        }
      ]
    },
    {
      "name": "material-a57e8b3c-a72e-4e56-9d8f-716af9bf6661",
      "primitives": [
        {
          "attributes": {
            "NORMAL": 5,
            "POSITION": 4,
            "TEXCOORD_0": 6
          },
          "indices": 7,
          "material": 0,
          "mode": 4
        }
      ]
    },
    {
      "name": "material-a57e8b3c-a72e-4e56-9d8f-716af9bf6661",
      "primitives": [
        {
          "attributes": {
            "NORMAL": 9,
            "POSITION": 8,
            "TEXCOORD_0": 10
          },
          "indices": 11,
          "material": 0,
          "mode": 4
        }
      ]
    },
    {
      "name": "material-a57e8b3c-a72e-4e56-9d8f-716af9bf6661",
      "primitives": [
        {
          "attributes": {
            "NORMAL": 13,
            "POSITION": 12,
            "TEXCOORD_0": 14
          },
          "indices": 15,
          "material": 0,
          "mode": 4
        }
      ]
    },
    {
      "name": "material-a57e8b3c-a72e-4e56-9d8f-716af9bf6661",
      "primitives": [
        {
          "attributes": {
            "NORMAL": 17,
            "POSITION": 16,
            "TEXCOORD_0": 18
          },
          "indices": 19,
          "material": 0,
          "mode": 4
        }
      ]
    },
    {
      "name": "material-a57e8b3c-a72e-4e56-9d8f-716af9bf6661",
      "primitives": [
        {
          "attributes": {
            "NORMAL": 21,
            "POSITION": 20,
            "TEXCOORD_0": 22
          },
          "indices": 23,
          "material": 0,
          "mode": 4
        }
      ]
    },
    {
      "name": "material-a57e8b3c-a72e-4e56-9d8f-716af9bf6661",
      "primitives": [
        {
          "attributes": {
            "NORMAL": 25,
            "POSITION": 24,
            "TEXCOORD_0": 26
          },
          "indices": 27,
          "material": 0,
          "mode": 4
        }
      ]
    },
    {
      "name": "material-a57e8b3c-a72e-4e56-9d8f-716af9bf6661",
      "primitives": [
        {
          "attributes": {
            "NORMAL": 29,
            "POSITION": 28,
            "TEXCOORD_0": 30
          },
          "indices": 31,
          "material": 0,
          "mode": 4
        }
      ]
    },
    {
      "name": "material-a57e8b3c-a72e-4e56-9d8f-716af9bf6661",
      "primitives": [
        {
          "attributes": {
            "NORMAL": 33,
            "POSITION": 32,
            "TEXCOORD_0": 34
          },
          "indices": 35,
          "material": 0,
          "mode": 4
        }
      ]
    },
    {
      "name": "material-a57e8b3c-a72e-4e56-9d8f-716af9bf6661",
      "primitives": [
        {
          "attributes": {
            "NORMAL": 37,
            "POSITION": 36,
            "TEXCOORD_0": 38
          },
          "indices": 39,
          "material": 0,
          "mode": 4
        }
      ]
    }
  ],
  "nodes": [
    {
      "children": [
        1
      ],
      "matrix": [
        1.0,
        0.0,
        0.0,
        0.0,
        0.0,
        2.220446049250313e-16,
        -1.0,
        0.0,
        0.0,
        1.0,
        2.220446049250313e-16,
        0.0,
        0.0,
        0.0,
        0.0,
        1.0
      ],
      "name": "Sketchfab_model"
    },
    {
      "children": [
        2,
        13,
        15,
        17,
        19
      ],
      "name": "Collada visual scene group"
    },
    {
      "children": [
        3,
        4,
        5,
        6,
        7,
        8,
        9,
        10,
        11,
        12
      ],
      "name": "Mesh"
    },
    {
      "mesh": 0,
      "name": "material-a57e8b3c-a72e-4e56-9d8f-716af9bf6661"
    },
    {
      "mesh": 1,
      "name": "material-a57e8b3c-a72e-4e56-9d8f-716af9bf6661"
    },
    {
      "mesh": 2,
      "name": "material-a57e8b3c-a72e-4e56-9d8f-716af9bf6661"
    },
    {
      "mesh": 3,
      "name": "material-a57e8b3c-a72e-4e56-9d8f-716af9bf6661"
    },
    {
      "mesh": 4,
      "name": "material-a57e8b3c-a72e-4e56-9d8f-716af9bf6661"
    },
    {
      "mesh": 5,
      "name": "material-a57e8b3c-a72e-4e56-9d8f-716af9bf6661"
    },
    {
      "mesh": 6,
      "name": "material-a57e8b3c-a72e-4e56-9d8f-716af9bf6661"
    },
    {
      "mesh": 7,
      "name": "material-a57e8b3c-a72e-4e56-9d8f-716af9bf6661"
    },
    {
      "mesh": 8,
      "name": "material-a57e8b3c-a72e-4e56-9d8f-716af9bf6661"
    },
    {
      "mesh": 9,
      "name": "material-a57e8b3c-a72e-4e56-9d8f-716af9bf6661"
    },
    {
      "children": [
        14
      ],
      "matrix": [
        0.0,
        1.0,
        0.0,
        0.0,
        0.0,
        0.0,
        1.0,
        0.0,
        1.0,
        0.0,
        0.0,
        0.0,
        21365.345799,
        4589.435684,
        568.015773,
        1.0
      ],
      "name": "View-Right"
    },
    {
      "name": "Camera-Right"
    },
    {
      "children": [
        16
      ],
      "matrix": [
        1.0,
        0.0,
        0.0,
        0.0,
        0.0,
        0.0,
        1.0,
        0.0,
        0.0,
        -1.0,
        0.0,
        0.0,
        8707.834744,
        -17476.145847,
        609.906095,
        1.0
      ],
      "name": "View-Front"
    },
    {
      "name": "Camera-Front"
    },
    {
      "children": [
        18
      ],
      "matrix": [
        1.0,
        0.0,
        0.0,
        0.0,
        0.0,
        1.0,
        0.0,
        0.0,
        0.0,
        0.0,
        1.0,
        0.0,
        1180.952869,
        -1893.347999,
        19817.778928,
        1.0
      ],
      "name": "View-Top"
    },
    {
      "name": "Camera-Top"
    },
    {
      "children": [
        20
      ],
      "matrix": [
        0.984196,
        -0.177085,
        0.0,
        0.0,
        0.089065,
        0.495002,
        0.8643150000000001,
        0.0,
        -0.153057,
        -0.850655,
        0.502951,
        0.0,
        3952.850781,
        -3312.818449,
        3417.013156,
        1.0
      ],
      "name": "View-01"
    },
    {
      "name": "Camera-01"
    }
  ],
  "samplers": [
    {
      "magFilter": 9729,
      "minFilter": 9987,
      "wrapS": 10497,
      "wrapT": 10497
    }
  ],
  "scene": 0,
  "scenes": [
    {
      "name": "Sketchfab_Scene",
      "nodes": [
        0
      ]
    }
  ],
  "textures": [
    {
      "sampler": 0,
      "source": 0
    }
  ]
}
