{
  "accessors": [
    {
      "bufferView": 2,
      "componentType": 5126,
      "count": 65532,
      "max": [
        4242.66650390625,
        2197.25341796875,
        699.3449096679688
      ],
      "min": [
        3596.220947265625,
        1804.3302001953125,
        0.6624462008476257
      ],
      "type": "VEC3"
    },
    {
      "bufferView": 2,
      "byteOffset": 786384,
      "componentType": 5126,
      "count": 65532,
      "max": [
        0.9999839067459106,
        0.9999683499336243,
        0.999888002872467
      ],
      "min": [
        -0.999984622001648,
        -0.9999737739562988,
        -0.9998672604560852
      ],
      "type": "VEC3"
    },
    {
      "bufferView": 1,
      "componentType": 5126,
      "count": 65532,
      "max": [
        8.63003158569336,
        6.9934492111206055
      ],
      "min": [
        -7.616504192352295,
        -7.655326843261719
      ],
      "type": "VEC2"
    },
    {
      "bufferView": 0,
      "componentType": 5125,
      "count": 152688,
      "type": "SCALAR"
    },
    {
      "bufferView": 2,
      "byteOffset": 1572768,
      "componentType": 5126,
      "count": 65532,
      "max": [
        3807.268798828125,
        2088.949951171875,
        516.423583984375
      ],
      "min": [
        3382.089111328125,
        1340.5157470703125,
        0.0
      ],
      "type": "VEC3"
    },
    {
      "bufferView": 2,
      "byteOffset": 2359152,
      "componentType": 5126,
      "count": 65532,
      "max": [
        0.9998729825019836,
        0.9999881386756897,
        0.9999614953994751
      ],
      "min": [
        -0.9999887347221375,
        -0.9999997615814209,
        -0.9999614953994751
      ],
      "type": "VEC3"
    },
    {
      "bufferView": 1,
      "byteOffset": 524256,
      "componentType": 5126,
      "count": 65532,
      "max": [
        10.228866577148438,
        5.161812782287598
      ],
      "min": [
        -9.206239700317383,
        -6.567091941833496
      ],
      "type": "VEC2"
    },
    {
      "bufferView": 0,
      "byteOffset": 610752,
      "componentType": 5125,
      "count": 149700,
      "type": "SCALAR"
    },
    {
      "bufferView": 2,
      "byteOffset": 3145536,
      "componentType": 5126,
      "count": 65532,
      "max": [
        4219.455078125,
        1705.03466796875,
        552.04443359375
      ],
      "min": [
        3399.55078125,
        1233.3609619140625,
        0.4539124071598053
      ],
      "type": "VEC3"
    },
    {
      "bufferView": 2,
      "byteOffset": 3931920,
      "componentType": 5126,
      "count": 65532,
      "max": [
        0.9999620914459229,
        0.9999716281890869,
        0.999980092048645
      ],
      "min": [
        -0.9999552369117737,
        -0.9999949932098389,
        -0.999980092048645
      ],
      "type": "VEC3"
    },
    {
      "bufferView": 1,
      "byteOffset": 1048512,
      "componentType": 5126,
      "count": 65532,
      "max": [
        10.05424976348877,
        5.520443916320801
      ],
      "min": [
        -9.05424976348877,
        -2.642868995666504
      ],
      "type": "VEC2"
    },
    {
      "bufferView": 0,
      "byteOffset": 1209552,
      "componentType": 5125,
      "count": 150870,
      "type": "SCALAR"
    },
    {
      "bufferView": 2,
      "byteOffset": 4718304,
      "componentType": 5126,
      "count": 65532,
      "max": [
        4297.7119140625,
        2147.51025390625,
        687.0482788085938
      ],
      "min": [
        3446.013671875,
        1251.01708984375,
        1.274206519126892
      ],
      "type": "VEC3"
    },
    {
      "bufferView": 2,
      "byteOffset": 5504688,
      "componentType": 5126,
      "count": 65532,
      "max": [
        0.9995710253715515,
        0.9999760985374451,
        0.9999628663063049
      ],
      "min": [
        -0.9999628663063049,
        -0.9999909996986389,
        -0.9999628663063049
      ],
      "type": "VEC3"
    },
    {
      "bufferView": 1,
      "byteOffset": 1572768,
      "componentType": 5126,
      "count": 65532,
      "max": [
        9.589620590209961,
        6.8704400062561035
      ],
      "min": [
        -8.58720874786377,
        -7.157895088195801
      ],
      "type": "VEC2"
    },
    {
      "bufferView": 0,
      "byteOffset": 1813032,
      "componentType": 5125,
      "count": 169779,
      "type": "SCALAR"
    },
    {
      "bufferView": 2,
      "byteOffset": 6291072,
      "componentType": 5126,
      "count": 65532,
      "max": [
        4284.587890625,
        2163.179443359375,
        672.700927734375
      ],
      "min": [
        3382.908203125,
        1233.3609619140625,
        0.6037909388542175
      ],
      "type": "VEC3"
    },
    {
      "bufferView": 2,
      "byteOffset": 7077456,
      "componentType": 5126,
      "count": 65532,
      "max": [
        0.9999972581863403,
        0.9999802112579346,
        0.9999648928642273
      ],
      "min": [
        -0.9999887347221375,
        -0.9999629855155945,
        -0.9999362230300903
      ],
      "type": "VEC3"
    },
    {
      "bufferView": 1,
      "byteOffset": 2097024,
      "componentType": 5126,
      "count": 65532,
      "max": [
        10.206239700317383,
        6.727008819580078
      ],
      "min": [
        -9.220675468444824,
        -7.314587116241455
      ],
      "type": "VEC2"
    },
    {
      "bufferView": 0,
      "byteOffset": 2492148,
      "componentType": 5125,
      "count": 120075,
      "type": "SCALAR"
    },
    {
      "bufferView": 2,
      "byteOffset": 7863840,
      "componentType": 5126,
      "count": 65532,
      "max": [
        4347.00830078125,
        2034.3968505859375,
        722.6808471679688
      ],
      "min": [
        3401.590087890625,
        1207.293212890625,
        11.027178764343262
      ],
      "type": "VEC3"
    },
    {
      "bufferView": 2,
      "byteOffset": 8650224,
      "componentType": 5126,
      "count": 65532,
      "max": [
        0.999963641166687,
        0.9999902248382568,
        0.9997185468673706
      ],
      "min": [
        -0.9999294877052307,
        -0.9999708533287048,
        -0.9999997615814209
      ],
      "type": "VEC3"
    },
    {
      "bufferView": 1,
      "byteOffset": 2621280,
      "componentType": 5126,
      "count": 65532,
      "max": [
        9.683876037597656,
        7.226809024810791
      ],
      "min": [
        -9.033856391906738,
        -6.025664806365967
      ],
      "type": "VEC2"
    },
    {
      "bufferView": 0,
      "byteOffset": 2972448,
      "componentType": 5125,
      "count": 147603,
      "type": "SCALAR"
    },
    {
      "bufferView": 2,
      "byteOffset": 9436608,
      "componentType": 5126,
      "count": 65532,
      "max": [
        4346.98974609375,
        2196.9130859375,
        722.6808471679688
      ],
      "min": [
        3397.89013671875,
        1208.779296875,
        0.9029456377029419
      ],
      "type": "VEC3"
    },
    {
      "bufferView": 2,
      "byteOffset": 10222992,
      "componentType": 5126,
      "count": 65532,
      "max": [
        0.9999403357505798,
        0.9999836683273315,
        0.9999834895133972
      ],
      "min": [
        -0.999962329864502,
        -0.9999997615814209,
        -0.9999209046363831
      ],
      "type": "VEC3"
    },
    {
      "bufferView": 1,
      "byteOffset": 3145536,
      "componentType": 5126,
      "count": 65532,
      "max": [
        10.066452026367188,
        7.226809024810791
      ],
      "min": [
        -9.069291114807129,
        -7.651924133300781
      ],
      "type": "VEC2"
    },
    {
      "bufferView": 0,
      "byteOffset": 3562860,
      "componentType": 5125,
      "count": 103803,
      "type": "SCALAR"
    },
    {
      "bufferView": 2,
      "byteOffset": 11009376,
      "componentType": 5126,
      "count": 43204,
      "max": [
        4285.05517578125,
        2196.66552734375,
        699.3218994140625
      ],
      "min": [
        3382.779052734375,
        1237.76171875,
        1.190022349357605
      ],
      "type": "VEC3"
    },
    {
      "bufferView": 2,
      "byteOffset": 11527824,
      "componentType": 5126,
      "count": 43204,
      "max": [
        0.9999988675117493,
        0.9999679923057556,
        0.9999834895133972
      ],
      "min": [
        -0.999962329864502,
        -0.9999997615814209,
        -0.9999628663063049
      ],
      "type": "VEC3"
    },
    {
      "bufferView": 1,
      "byteOffset": 3669792,
      "componentType": 5126,
      "count": 43204,
      "max": [
        10.17360782623291,
        6.993218898773193
      ],
      "min": [
        -9.221966743469238,
        -7.649447917938232
      ],
      "type": "VEC2"
    },
    {
      "bufferView": 0,
      "byteOffset": 3978072,
      "componentType": 5125,
      "count": 43776,
      "type": "SCALAR"
    }
  ],
  "asset": {
    "extras": {
      "author": "TourFromHome (https://sketchfab.com/TourFromHome)",
      "license": "CC-BY-4.0 (http://creativecommons.org/licenses/by/4.0/)",
      "source": "https://sketchfab.com/3d-models/scene07-1055d8cf52734e7880b0b04dca2ce85e",
      "title": "Scene07"
    },
    "generator": "Sketchfab-10.85.0",
    "version": "2.0"
  },
  "bufferViews": [
    {
      "buffer": 0,
      "byteLength": 4153176,
      "name": "floatBufferViews",
      "target": 34963
    },
    {
      "buffer": 0,
      "byteLength": 4015424,
      "byteOffset": 4153176,
      "byteStride": 8,
      "name": "floatBufferViews",
      "target": 34962
    },
    {
      "buffer": 0,
      "byteLength": 12046272,
      "byteOffset": 8168600,
      "byteStride": 12,
      "name": "floatBufferViews",
      "target": 34962
    }
  ],
  "buffers": [
    {
      "byteLength": 20214872,
      "uri": "scene.bin"
    }
  ],
  "images": [
    {
      "uri": "textures/Material-_Qurly_White_baseColor.jpeg"
    }
  ],
  "materials": [
    {
      "doubleSided": true,
      "name": "Material-_Qurly_White",
      "pbrMetallicRoughness": {
        "baseColorTexture": {
          "index": 0
        },
        "metallicFactor": 0.0,
        "roughnessFactor": 0.6
      }
    }
  ],
  "meshes": [
    {
      "name": "material-aa21a829-35af-42e8-8f3b-d8cf40b2b474",
      "primitives": [
        {
          "attributes": {
            "NORMAL": 1,
            "POSITION": 0,
            "TEXCOORD_0": 2
          },
          "indices": 3,
          "material": 0,
          "mode": 4
        }
      ]
    },
    {
      "name": "material-aa21a829-35af-42e8-8f3b-d8cf40b2b474",
      "primitives": [
        {
          "attributes": {
            "NORMAL": 5,
            "POSITION": 4,
            "TEXCOORD_0": 6
          },
          "indices": 7,
          "material": 0,
          "mode": 4
        }
      ]
    },
    {
      "name": "material-aa21a829-35af-42e8-8f3b-d8cf40b2b474",
      "primitives": [
        {
          "attributes": {
            "NORMAL": 9,
            "POSITION": 8,
            "TEXCOORD_0": 10
          },
          "indices": 11,
          "material": 0,
          "mode": 4
        }
      ]
    },
    {
      "name": "material-aa21a829-35af-42e8-8f3b-d8cf40b2b474",
      "primitives": [
        {
          "attributes": {
            "NORMAL": 13,
            "POSITION": 12,
            "TEXCOORD_0": 14
          },
          "indices": 15,
          "material": 0,
          "mode": 4
        }
      ]
    },
    {
      "name": "material-aa21a829-35af-42e8-8f3b-d8cf40b2b474",
      "primitives": [
        {
          "attributes": {
            "NORMAL": 17,
            "POSITION": 16,
            "TEXCOORD_0": 18
          },
          "indices": 19,
          "material": 0,
          "mode": 4
        }
      ]
    },
    {
      "name": "material-aa21a829-35af-42e8-8f3b-d8cf40b2b474",
      "primitives": [
        {
          "attributes": {
            "NORMAL": 21,
            "POSITION": 20,
            "TEXCOORD_0": 22
          },
          "indices": 23,
          "material": 0,
          "mode": 4
        }
      ]
    },
    {
      "name": "material-aa21a829-35af-42e8-8f3b-d8cf40b2b474",
      "primitives": [
        {
          "attributes": {
            "NORMAL": 25,
            "POSITION": 24,
            "TEXCOORD_0": 26
          },
          "indices": 27,
          "material": 0,
          "mode": 4
        }
      ]
    },
    {
      "name": "material-aa21a829-35af-42e8-8f3b-d8cf40b2b474",
      "primitives": [
        {
          "attributes": {
            "NORMAL": 29,
            "POSITION": 28,
            "TEXCOORD_0": 30
          },
          "indices": 31,
          "material": 0,
          "mode": 4
        }
      ]
    }
  ],
  "nodes": [
    {
      "children": [
        1
      ],
      "matrix": [
        1.0,
        0.0,
        0.0,
        0.0,
        0.0,
        2.220446049250313e-16,
        -1.0,
        0.0,
        0.0,
        1.0,
        2.220446049250313e-16,
        0.0,
        0.0,
        0.0,
        0.0,
        1.0
      ],
      "name": "Sketchfab_model"
    },
    {
      "children": [
        2,
        11,
        13,
        15,
        17
      ],
      "name": "Collada visual scene group"
    },
    {
      "children": [
        3,
        4,
        5,
        6,
        7,
        8,
        9,
        10
      ],
      "name": "Mesh"
    },
    {
      "mesh": 0,
      "name": "material-aa21a829-35af-42e8-8f3b-d8cf40b2b474"
    },
    {
      "mesh": 1,
      "name": "material-aa21a829-35af-42e8-8f3b-d8cf40b2b474"
    },
    {
      "mesh": 2,
      "name": "material-aa21a829-35af-42e8-8f3b-d8cf40b2b474"
    },
    {
      "mesh": 3,
      "name": "material-aa21a829-35af-42e8-8f3b-d8cf40b2b474"
    },
    {
      "mesh": 4,
      "name": "material-aa21a829-35af-42e8-8f3b-d8cf40b2b474"
    },
    {
      "mesh": 5,
      "name": "material-aa21a829-35af-42e8-8f3b-d8cf40b2b474"
    },
    {
      "mesh": 6,
      "name": "material-aa21a829-35af-42e8-8f3b-d8cf40b2b474"
    },
    {
      "mesh": 7,
      "name": "material-aa21a829-35af-42e8-8f3b-d8cf40b2b474"
    },
    {
      "children": [
        12
      ],
      "matrix": [
        0.0,
        1.0,
        0.0,
        0.0,
        0.0,
        0.0,
        1.0,
        0.0,
        1.0,
        0.0,
        0.0,
        0.0,
        21365.345799,
        4589.435684,
        568.015773,
        1.0
      ],
      "name": "View-Right"
    },
    {
      "name": "Camera-Right"
    },
    {
      "children": [
        14
      ],
      "matrix": [
        1.0,
        0.0,
        0.0,
        0.0,
        0.0,
        0.0,
        1.0,
        0.0,
        0.0,
        -1.0,
        0.0,
        0.0,
        8707.834744,
        -17476.145847,
        609.906095,
        1.0
      ],
      "name": "View-Front"
    },
    {
      "name": "Camera-Front"
    },
    {
      "children": [
        16
      ],
      "matrix": [
        1.0,
        0.0,
        0.0,
        0.0,
        0.0,
        1.0,
        0.0,
        0.0,
        0.0,
        0.0,
        1.0,
        0.0,
        1180.952869,
        -1893.347999,
        19817.778928,
        1.0
      ],
      "name": "View-Top"
    },
    {
      "name": "Camera-Top"
    },
    {
      "children": [
        18
      ],
      "matrix": [
        -0.999328,
        0.036644,
        0.0,
        0.0,
        -0.017595,
        -0.479831,
        0.877185,
        0.0,
        0.032143,
        0.876595,
        0.480153,
        0.0,
        3790.260914,
        4531.587672,
        1843.487157,
        1.0
      ],
      "name": "View-01"
    },
    {
      "name": "Camera-01"
    }
  ],
  "samplers": [
    {
      "magFilter": 9729,
      "minFilter": 9987,
      "wrapS": 10497,
      "wrapT": 10497
    }
  ],
  "scene": 0,
  "scenes": [
    {
      "name": "Sketchfab_Scene",
      "nodes": [
        0
      ]
    }
  ],
  "textures": [
    {
      "sampler": 0,
      "source": 0
    }
  ]
}
